<svg width="585" height="40" viewBox="0 0 585 40" fill="none" xmlns="http://www.w3.org/2000/svg">
<path fill-rule="evenodd" clip-rule="evenodd" d="M0 0C195.469 0 389.53 0 585 0C585 12.999 585 21.001 585 34C583.549 33.749 583.394 32.79 581.701 33.3C580.181 33.758 578.477 36.636 575.836 35.3C574.837 34.794 575.143 33.758 573.637 33.3C570.053 39.721 560.597 38.743 554.21 36.8C550.309 35.613 548.495 39.495 545.413 38.3C543.841 37.691 543.382 34.966 541.748 35.8C539.66 36.536 539.582 38.154 536.616 38.3C536.337 37.831 533.579 34.431 533.317 34.3C531.423 33.352 528.507 35.288 527.086 33.8C526.525 33.213 525.633 30.621 525.253 29.8C522.806 31.796 515.822 34.509 511.325 32.8C509.654 32.165 508.739 28.784 506.193 29.8C505.827 30.3 505.46 30.8 505.094 31.3C502.406 31.3 499.717 31.3 497.03 31.3C495.304 31.989 491.978 33.712 490.432 34.3C488.599 33.967 486.766 33.633 484.934 33.3C481.973 34.64 482.159 38.181 476.87 38.3C475.259 35.291 473.884 36.874 470.639 35.8C470.464 35.742 469.919 34.716 469.539 34.8C468.608 35.006 468.049 36.904 466.24 36.3C464.44 35.699 463.292 32.866 461.842 32.3C460.04 31.597 457.478 33.47 455.61 31.8C454.67 30.958 453.741 28.452 452.678 27.8C451.457 27.633 450.234 27.467 449.013 27.3C448.524 26.633 448.035 25.967 447.547 25.3C446.001 24.726 445.77 26.448 444.981 26.8C443.148 26.8 441.315 26.8 439.483 26.8C438.593 27.172 437.779 28.738 436.184 28.3C434.368 27.802 433.726 25.49 432.518 24.8C430.686 24.967 428.853 25.133 427.02 25.3C426.541 25.139 425.154 23.904 424.821 23.8C422.991 23.23 420.077 25.254 418.956 25.8C417.246 25.8 415.535 25.8 413.825 25.8C411.344 26.801 407.901 26.886 405.394 27.8C403.195 27.967 400.996 28.133 398.797 28.3C397.275 29.11 394.886 31.228 393.298 31.8C389.936 33.011 382.993 27.277 380.469 27.8C374.201 29.1 369.33 33.492 363.609 34.8C360.257 35.566 357.227 32.091 353.345 33.8C351.296 34.702 350.641 36.217 347.481 36.3C347.421 36.19 336.977 27.351 336.851 27.3C334.963 26.533 329.777 28.433 326.954 27.8C325.676 27.513 326.1 25.769 324.389 26.3C324.022 26.8 323.656 27.3 323.289 27.8C320.357 27.8 317.424 27.8 314.492 27.8C314.125 28.467 313.759 29.133 313.392 29.8C311.455 31.422 308.354 30.554 306.428 29.8C304.474 29.8 302.518 29.8 300.563 29.8C298.476 28.898 290.541 25.088 288.834 28.8C287.973 30.327 288.16 32.218 287.734 33.3C287.302 33.701 287.118 33.687 286.268 33.8C284.656 31.678 280.478 35.588 278.937 34.8C277.859 34.248 277.803 32.909 275.639 32.8C275.639 33.133 275.639 33.467 275.639 33.8C275.914 34.336 275.859 34.273 276.005 35.3C275.254 35.656 274.292 35.797 273.073 35.8C272.653 35.072 272.339 34.7 271.973 33.8C269.288 36.691 259.951 41.178 254.379 38.8C253.191 38.293 253.145 36.146 251.08 36.8C250.836 37.133 250.591 37.467 250.347 37.8C247.293 37.633 244.238 37.467 241.184 37.3C240.08 37.909 237.103 40.775 234.586 39.8C234.219 39.3 233.853 38.8 233.486 38.3C231.654 38.133 229.821 37.967 227.988 37.8C227.622 37.3 227.255 36.8 226.889 36.3C224.92 35.254 223.09 36.284 221.39 35.3C220.187 34.603 219.469 32.821 218.092 32.3C215.038 32.133 211.982 31.967 208.928 31.8C208.231 31.517 207.562 30.065 207.095 29.8C205.019 29.8 202.941 29.8 200.864 29.8C199.732 31.763 196.043 35.029 194.266 35.8C190.601 35.633 186.936 35.467 183.27 35.3C183.026 35.8 182.781 36.3 182.537 36.8C178.246 39.45 171.936 33.506 169.342 31.8C167.479 30.575 166.659 33.346 164.943 32.8C162.495 32.022 159.511 29.132 156.513 28.8C153.843 33.878 150.232 29.047 146.616 28.3C143.026 27.558 140.534 33.07 136.353 30.8C134.423 29.752 131.658 26.39 127.922 27.8C125.61 28.673 123.325 31.916 120.958 32.8C118.821 33.598 116.65 31.786 115.093 31.3C110.954 30.007 108.911 33.947 105.563 32.8C104.066 32.287 103.159 30.482 101.898 29.8C100.002 28.775 98.5207 29.077 96.7664 27.8C96.2775 27.133 95.7892 26.467 95.3003 25.8C92.3679 25.8 89.4356 25.8 86.5033 25.8C85.9256 25.534 85.2489 24.065 84.6705 23.8C82.9933 23.031 73.0937 23.082 71.8416 23.8C70.9011 24.339 69.1138 26.319 67.8096 26.8C65.8992 27.505 65.2343 25.96 63.4111 25.8C62.6891 27.386 61.7419 28.484 60.8454 29.8C56.7826 29.853 52.997 29.182 49.8491 28.8C49.0757 30.518 48.6109 31.206 46.5502 31.3C45.8076 30.24 45.4719 29.975 43.9845 29.8C43.2616 31.224 42.8804 31.307 41.0521 31.3C39.5911 29.333 38.3815 30.79 35.9206 29.8C34.5621 29.254 30.6336 24.804 28.5897 25.8C28.1103 26.033 27.1104 27.661 26.3905 27.8C24.5365 28.158 23.5894 24.233 21.2589 25.8C18.4087 27.716 16.337 31.453 12.4619 31.8C7.53412 25.82 3.82156 33.042 0 34C0 21.168 0 12.832 0 0Z" fill="white"/>
</svg>