<svg width="32" height="32" viewBox="0 0 32 32" fill="none" xmlns="http://www.w3.org/2000/svg">
<path d="M20 18.9415V22H10V8H13.3036V18.9415H20Z" fill="#0D0E2C"/>
<path fill-rule="evenodd" clip-rule="evenodd" d="M0 15C0 19.6132 2.08248 23.7399 5.35864 26.4915C8.10871 29.7655 12.236 31.8492 16.8493 31.8492C25.1336 31.8492 31.8493 25.1334 31.8493 16.8492C31.8493 12.2356 29.7653 8.10795 26.4909 5.35787C23.7393 2.08215 19.6128 0 15 0C6.71573 0 0 6.71573 0 15ZM15 2C7.8203 2 2 7.8203 2 15C2 18.9861 3.794 22.5531 6.61863 24.9378L6.63265 24.9238C8.87243 26.7529 11.7315 27.8492 14.8493 27.8492C22.029 27.8492 27.8493 22.0289 27.8493 14.8492C27.8493 11.7314 26.753 8.87231 24.9239 6.63253L24.9378 6.61863C22.5531 3.794 18.9861 2 15 2Z" fill="#0D0E2C"/>
</svg>
