<svg width="32" height="32" viewBox="0 0 32 32" fill="none" xmlns="http://www.w3.org/2000/svg">
<style>
:root {
  --primary: #27272A;
}

@media (prefers-color-scheme: dark) {
  :root {
    --primary: #F4F4F5;
  }
}
</style>
<path d="M20.0946 19.0312V22.1042H10.0473V8.03788H13.3665V19.0312H20.0946Z" fill="var(--primary)"/>
<path fill-rule="evenodd" clip-rule="evenodd" d="M0 15.071C0 19.706 2.09233 23.8523 5.38399 26.617C8.14708 29.9064 12.2939 32 16.929 32C25.2525 32 32 25.2525 32 16.929C32 12.2935 29.9061 8.14634 26.6162 5.38325C23.8516 2.09201 19.7056 0 15.071 0C6.74751 0 0 6.74753 0 15.071ZM15.071 2.00947C7.8573 2.00947 2.00946 7.85733 2.00946 15.071C2.00946 19.076 3.81196 22.6599 6.64995 25.0559L6.66403 25.0418C8.91441 26.8796 11.787 27.9811 14.9196 27.9811C22.1332 27.9811 27.9811 22.1332 27.9811 14.9195C27.9811 11.7869 26.8796 8.91432 25.0419 6.66394L25.0558 6.64998C22.6599 3.81197 19.0759 2.00947 15.071 2.00947Z" fill="var(--primary)"/>
</svg>

<svg width="32" height="32" viewBox="0 0 32 32" fill="none" xmlns="http://www.w3.org/2000/svg">
<style>
:root {
  --primary: #0d0e2c;
}

@media (prefers-color-scheme: dark) {
  :root {
    --primary: #dadde8;
  }
}
</style>
<path d="M14.9677 7.22581C15.2528 7.22581 15.4839 7.45689 15.4839 7.74194V18.5806H19.6129C19.898 18.5806 20.129 18.8117 20.129 19.0968V22.1935C20.129 22.4786 19.898 22.7097 19.6129 22.7097H10.3226C10.0375 22.7097 9.80645 22.4786 9.80645 22.1935V7.74194C9.80645 7.45688 10.0375 7.22581 10.3226 7.22581H14.9677Z" fill="var(--primary)"/>
<path fill-rule="evenodd" clip-rule="evenodd" d="M5.38399 26.617C2.20061 23.4338 0 19.706 0 15.071C0 6.74753 6.7475 0 15.071 0C19.7056 0 23.7156 2.48281 26.6162 5.38325C29.5168 8.28369 32 12.2935 32 16.929C32 25.2525 25.2525 32 16.929 32C12.2939 32 8.56738 29.8001 5.38399 26.617ZM2.00946 15.071C2.00946 7.85733 7.8573 2.00947 15.071 2.00947C19.0759 2.00947 22.6599 3.81197 25.0558 6.64998L25.0418 6.66394C26.8796 8.91432 27.9811 11.7869 27.9811 14.9195C27.9811 22.1332 22.1332 27.9811 14.9196 27.9811C11.787 27.9811 8.91441 26.8796 6.66403 25.0418L6.64995 25.0559C3.81196 22.6599 2.00946 19.076 2.00946 15.071Z" fill="var(--primary)"/>
</svg>
