<svg width="32" height="25" viewBox="0 0 32 25" fill="none" xmlns="http://www.w3.org/2000/svg">
<style>
:root {
  --primary: #000;
}

@media (prefers-color-scheme: dark) {
  :root {
    --primary: #fff;
  }
}
</style>
<path d="M21.7814 23.2487C21.1146 23.2487 20.4207 23.0865 19.6998 22.7621C18.9789 22.4557 18.3662 21.9331 17.8616 21.1942C17.375 20.4552 17.1317 19.473 17.1317 18.2475C17.1317 16.9499 17.2398 15.6073 17.4561 14.2196C17.6903 12.8138 17.9877 11.4351 18.3482 10.0834C18.7266 8.71375 19.1321 7.42517 19.5647 6.21768C20.0152 5.01018 20.4568 3.93786 20.8893 3.0007C21.3398 2.06355 21.7544 1.33365 22.1328 0.811001C22.5293 0.270334 22.8447 0 23.079 0C23.5656 0 23.9981 0.180222 24.3766 0.540667C24.7731 0.901112 24.9713 1.45079 24.9713 2.1897C24.9713 2.36993 24.8632 2.81147 24.6469 3.51434C24.4487 4.19918 24.1874 5.05524 23.863 6.08251C23.5566 7.10978 23.2142 8.22716 22.8357 9.43465C22.4752 10.6241 22.1328 11.8316 21.8084 13.0571C21.502 14.2826 21.2407 15.4361 21.0245 16.5174C20.8262 17.5987 20.7271 18.5269 20.7271 19.3018C20.7271 19.5181 20.8532 19.6262 21.1056 19.6262C21.466 19.6262 21.9977 19.5361 22.7005 19.3559C23.4214 19.1757 24.2054 18.9504 25.0524 18.6801C25.9175 18.3917 26.7465 18.1124 27.5395 17.842C28.3325 17.5717 29.0083 17.3464 29.567 17.1662C30.1257 16.986 30.4411 16.8959 30.5132 16.8959C30.9637 16.8959 31.3242 17.022 31.5945 17.2743C31.8648 17.5266 32 17.8871 32 18.3557C32 18.6801 31.7837 19.0585 31.3512 19.4911C30.9187 19.9056 30.342 20.3381 29.6211 20.7887C28.9002 21.2212 28.0892 21.6177 27.1881 21.9781C26.305 22.3566 25.3948 22.663 24.4577 22.8973C23.5205 23.1316 22.6284 23.2487 21.7814 23.2487Z" fill="var(--primary)"/>
<path d="M4.64974 24.2184C3.98292 24.2184 3.28906 24.0562 2.56817 23.7318C1.84728 23.4254 1.23452 22.9028 0.729901 22.1639C0.2433 21.4249 0 20.4427 0 19.2172C0 17.9196 0.108134 16.577 0.3244 15.1892C0.55869 13.7835 0.856057 12.4048 1.2165 11.0531C1.59497 9.68345 2.00047 8.39486 2.433 7.18737C2.88356 5.97988 3.3251 4.90756 3.75764 3.9704C4.20819 3.03324 4.62271 2.30334 5.00117 1.7807C5.39766 1.24003 5.71305 0.969697 5.94734 0.969697C6.43394 0.969697 6.86648 1.14992 7.24494 1.51036C7.64143 1.87081 7.83968 2.42049 7.83968 3.1594C7.83968 3.33962 7.73154 3.78117 7.51528 4.48403C7.31703 5.16888 7.05571 6.02494 6.73131 7.05221C6.42493 8.07947 6.08251 9.19685 5.70404 10.4043C5.34359 11.5938 5.00117 12.8013 4.67677 14.0268C4.37039 15.2523 4.10907 16.4057 3.8928 17.4871C3.69456 18.5684 3.59544 19.4966 3.59544 20.2715C3.59544 20.4878 3.72159 20.5959 3.9739 20.5959C4.33435 20.5959 4.86601 20.5058 5.56887 20.3256C6.28976 20.1454 7.07373 19.9201 7.92078 19.6498C8.78584 19.3614 9.61487 19.0821 10.4078 18.8117C11.2008 18.5414 11.8767 18.3161 12.4353 18.1359C12.994 17.9557 13.3094 17.8656 13.3815 17.8656C13.8321 17.8656 14.1925 17.9917 14.4629 18.244C14.7332 18.4963 14.8684 18.8568 14.8684 19.3254C14.8684 19.6498 14.6521 20.0282 14.2195 20.4608C13.787 20.8753 13.2103 21.3078 12.4894 21.7584C11.7685 22.1909 10.9575 22.5874 10.0564 22.9478C9.17332 23.3263 8.2632 23.6327 7.32604 23.867C6.38889 24.1012 5.49678 24.2184 4.64974 24.2184Z" fill="var(--primary)"/>
</svg>
